<?xml version="1.0" encoding="UTF-8" ?>
<!DOCTYPE svg PUBLIC "-//W3C//DTD SVG 1.1//EN" "http://www.w3.org/Graphics/SVG/1.1/DTD/svg11.dtd">
<svg width="70pt" height="47pt" viewBox="0 0 70 47" version="1.1" xmlns="http://www.w3.org/2000/svg">
<path fill="#f5f7fa" d=" M 0.00 0.00 L 5.57 0.00 C 2.81 0.58 0.88 2.58 0.00 5.20 L 0.00 0.00 Z" />
<path fill="#4758a9" d=" M 5.57 0.00 L 23.00 0.00 C 23.00 15.67 23.00 31.33 23.00 47.00 L 5.21 47.00 C 2.58 46.18 0.69 44.20 0.00 41.53 L 0.00 5.20 C 0.88 2.58 2.81 0.58 5.57 0.00 Z" />
<path fill="#f5f7fa" d=" M 23.00 0.00 L 46.00 0.00 C 46.00 15.67 46.00 31.33 46.00 47.00 L 23.00 47.00 C 23.00 31.33 23.00 15.67 23.00 0.00 Z" />
<path fill="#ed5565" d=" M 46.00 0.00 L 64.85 0.00 C 67.35 0.84 69.14 2.67 70.00 5.16 L 70.00 41.85 C 69.09 44.41 67.22 46.41 64.50 47.00 L 46.00 47.00 C 46.00 31.33 46.00 15.67 46.00 0.00 Z" />
<path fill="#f5f7fa" d=" M 64.85 0.00 L 70.00 0.00 L 70.00 5.16 C 69.14 2.67 67.35 0.84 64.85 0.00 Z" />
<path fill="#f5f7fa" d=" M 0.00 41.53 C 0.69 44.20 2.58 46.18 5.21 47.00 L 0.00 47.00 L 0.00 41.53 Z" />
<path fill="#f5f7fa" d=" M 64.50 47.00 C 67.22 46.41 69.09 44.41 70.00 41.85 L 70.00 47.00 L 64.50 47.00 Z" />
</svg>
