<?xml version="1.0" encoding="UTF-8" ?>
<!DOCTYPE svg PUBLIC "-//W3C//DTD SVG 1.1//EN" "http://www.w3.org/Graphics/SVG/1.1/DTD/svg11.dtd">
<svg width="70pt" height="47pt" viewBox="0 0 70 47" version="1.1" xmlns="http://www.w3.org/2000/svg">
<path fill="#fefdfe" d=" M 0.00 0.00 L 3.23 0.00 C 11.62 5.91 20.39 11.25 29.00 16.85 C 29.00 11.23 29.00 5.62 29.00 0.00 L 31.00 0.00 C 31.00 6.67 31.00 13.33 31.00 20.00 C 20.67 20.00 10.33 20.00 0.00 20.00 L 0.00 18.00 C 7.14 17.99 14.28 18.03 21.43 17.96 C 14.31 13.38 7.33 8.58 0.00 4.34 L 0.00 0.00 Z" />
<path fill="#4758a9" d=" M 3.23 0.00 L 29.00 0.00 C 29.00 5.62 29.00 11.23 29.00 16.85 C 20.39 11.25 11.62 5.91 3.23 0.00 Z" />
<path fill="#ed5565" d=" M 31.00 0.00 L 39.00 0.00 C 39.00 6.67 39.00 13.33 39.00 20.00 C 49.33 20.00 59.67 20.00 70.00 20.00 L 70.00 28.00 C 59.67 28.00 49.33 28.00 39.00 28.00 C 39.00 34.33 39.00 40.67 39.00 47.00 L 31.00 47.00 C 31.00 40.67 31.00 34.33 31.00 28.00 C 20.67 28.00 10.33 28.00 0.00 28.00 L 0.00 20.00 C 10.33 20.00 20.67 20.00 31.00 20.00 C 31.00 13.33 31.00 6.67 31.00 0.00 Z" />
<path fill="#fefdfe" d=" M 39.00 0.00 L 41.00 0.00 C 41.00 5.65 41.00 11.31 41.00 16.96 C 49.54 11.28 58.46 6.15 66.69 0.02 L 64.72 0.00 L 70.00 0.00 L 70.00 4.22 C 62.98 8.90 55.78 13.29 48.76 17.98 C 55.84 18.02 62.92 17.99 70.00 18.00 L 70.00 20.00 C 59.67 20.00 49.33 20.00 39.00 20.00 C 39.00 13.33 39.00 6.67 39.00 0.00 Z" />
<path fill="#4758a9" d=" M 41.00 0.00 L 64.72 0.00 L 66.69 0.02 C 58.46 6.15 49.54 11.28 41.00 16.96 C 41.00 11.31 41.00 5.65 41.00 0.00 Z" />
<path fill="#ed5565" d=" M 0.67 3.61 C 1.34 2.71 2.02 1.83 2.71 0.96 C 11.53 6.66 20.44 12.20 29.16 18.05 C 26.52 17.89 23.55 18.45 21.25 16.81 C 14.36 12.46 7.60 7.90 0.67 3.61 Z" />
<path fill="#ed5565" d=" M 62.34 4.14 C 64.01 3.16 65.59 1.79 67.54 1.48 C 68.06 1.99 69.10 3.02 69.62 3.54 C 62.64 7.89 55.81 12.48 48.86 16.88 C 46.58 18.47 43.67 17.87 41.08 18.05 C 48.03 13.22 55.33 8.90 62.34 4.14 Z" />
<path fill="#4758a9" d=" M 0.00 4.34 C 7.33 8.58 14.31 13.38 21.43 17.96 C 14.28 18.03 7.14 17.99 0.00 18.00 L 0.00 4.34 Z" />
<path fill="#4758a9" d=" M 48.76 17.98 C 55.78 13.29 62.98 8.90 70.00 4.22 L 70.00 18.00 C 62.92 17.99 55.84 18.02 48.76 17.98 Z" />
<path fill="#fefdfe" d=" M 0.00 28.00 C 10.33 28.00 20.67 28.00 31.00 28.00 C 31.00 34.33 31.00 40.67 31.00 47.00 L 29.00 47.00 C 29.00 41.56 29.00 36.12 29.00 30.68 C 20.62 36.10 12.18 41.42 3.91 47.00 L 0.00 47.00 L 0.00 43.36 C 6.88 38.90 13.85 34.57 20.68 30.03 C 13.79 29.98 6.89 30.01 0.00 30.00 L 0.00 28.00 Z" />
<path fill="#fefdfe" d=" M 39.00 28.00 C 49.33 28.00 59.67 28.00 70.00 28.00 L 70.00 30.00 C 63.19 30.01 56.38 29.97 49.56 30.03 C 56.33 34.44 63.05 38.93 69.99 43.06 L 70.00 41.74 L 70.00 47.00 L 66.49 47.00 C 58.04 41.43 49.52 35.97 41.00 30.51 C 41.00 36.01 41.00 41.50 41.00 47.00 L 39.00 47.00 C 39.00 40.67 39.00 34.33 39.00 28.00 Z" />
<path fill="#4758a9" d=" M 0.00 30.00 C 6.89 30.01 13.79 29.98 20.68 30.03 C 13.85 34.57 6.88 38.90 0.00 43.36 L 0.00 30.00 Z" />
<path fill="#ed5565" d=" M 17.81 32.85 C 20.79 30.35 24.56 29.48 28.39 30.03 C 19.96 35.40 11.77 41.22 3.03 46.07 C 2.48 45.56 1.38 44.55 0.83 44.04 C 6.29 40.02 12.24 36.72 17.81 32.85 Z" />
<path fill="#ed5565" d=" M 41.84 29.95 C 44.49 30.10 47.47 29.56 49.78 31.21 C 56.46 35.49 63.13 39.78 69.74 44.16 C 68.44 44.52 67.11 46.58 65.71 45.33 C 57.67 40.34 49.73 35.17 41.84 29.95 Z" />
<path fill="#4758a9" d=" M 49.56 30.03 C 56.38 29.97 63.19 30.01 70.00 30.00 L 70.00 41.74 L 69.99 43.06 C 63.05 38.93 56.33 34.44 49.56 30.03 Z" />
<path fill="#4758a9" d=" M 3.91 47.00 C 12.18 41.42 20.62 36.10 29.00 30.68 C 29.00 36.12 29.00 41.56 29.00 47.00 L 3.91 47.00 Z" />
<path fill="#4758a9" d=" M 41.00 30.51 C 49.52 35.97 58.04 41.43 66.49 47.00 L 41.00 47.00 C 41.00 41.50 41.00 36.01 41.00 30.51 Z" />
</svg>
